<svg height="30px" viewBox="0 0 512 512" width="36px" xmlns="http://www.w3.org/2000/svg" xmlns:xlink="http://www.w3.org/1999/xlink"><linearGradient id="a" gradientUnits="userSpaceOnUse" x1="0" x2="512" y1="256" y2="256"><stop offset="0" stop-color="#00f38d"/><stop offset="1" stop-color="#009eff"/></linearGradient><path d="m512 256c0 141.386719-114.613281 256-256 256s-256-114.613281-256-256 114.613281-256 256-256 256 114.613281 256 256zm0 0" fill="url(#a)"/><path d="m419.671875 324.0625h-.125c-.199219-55.488281-26.152344-116.847656-69.515625-164.28125-47.136719-51.554688-107.8125-80.359375-171.21875-81.414062-.703125-.019532-1.40625-.050782-2.109375-.050782v.019532c-.417969-.007813-.839844-.015626-1.257813-.015626-.054687 0-.113281-.003906-.167968-.003906-.027344 0-.050782 0-.078125 0-.003907 0-.007813 0-.015625 0v27c.054687 0 .105468.003906.160156.003906h.097656c4.226563.035157 13.167969 1.496094 20.710938 6.8125 8.511718 5.996094 12.648437 14.984376 12.648437 27.476563 0 33.167969-23.898437 56.34375-51.574219 83.179687-30.421874 29.5-64.902343 62.9375-64.902343 115.011719 0 1.75.257812 17.546875 9.195312 33.722657 8.609375 15.582031 26.773438 34.160156 64.398438 34.160156h174.933593c23.183594 0 41.957032-7.152344 55.796876-21.257813 23.433593-23.875 23.050781-58.886719 23.023437-60.363281zm-104.914063 29.324219c-6.417968 11.53125-17.738281 25.277343-35.214843 25.277343v.019532h-15.132813c-3.960937-2.605469-11.457031-9.089844-11.457031-20.878906 0-16.9375 8.398437-33.890626 18.117187-53.523438 13.578126-27.429688 28.972657-58.515625 28.972657-101.75 0-5.929688-.371094-11.578125-1.0625-16.957031 19.957031 32.660156 30.0625 68.671875 30.0625 107.324219-.003907 22.128906-5.207031 44.175781-14.285157 60.488281zm-133.707031-14.035157c0-23.527343 15.011719-42.191406 32.390625-63.800781 21.8125-27.113281 46.53125-57.847656 46.53125-105.464843 0-6.636719-.488281-12.773438-1.359375-18.449219 8.804688 13.621093 14.429688 30.484375 14.429688 50.894531 0 36.914062-13.304688 63.785156-26.171875 89.769531-10.753906 21.726563-20.917969 42.25-20.917969 65.503907 0 7.839843 1.703125 14.816406 4.410156 20.878906h-18.269531v-.015625c-17.699219-.003907-31.042969-16.90625-31.042969-39.316407zm-55.472656 19.867188c-6.03125-10.394531-6.253906-21.398438-6.253906-21.417969 0-40.648437 27.539062-67.355469 56.699219-95.628906 23.820312-23.101563 48.292968-46.839844 56.714843-78.75.140625 2.152344.234375 4.355469.234375 6.664063 0 38.105468-20.625 63.746093-40.570312 88.542968-18.855469 23.441406-38.351563 47.683594-38.351563 80.722656 0 14.445313 3.808594 28.113282 10.832031 39.3125-18.964843-.226562-31.835937-6.582031-39.304687-19.445312zm215.273437 19.464844h-10.492187c16.871094-22.003906 25.679687-54.457032 25.679687-85.785156 0-54.496094-18.441406-97.164063-37.25-126.496094 3.855469 3.710937 7.632813 7.570312 11.316407 11.597656 39.105469 42.769531 62.449219 97.617188 62.449219 146.714844h.121093c-.015625 2.003906-.542969 25.765625-15.296875 40.796875-8.578125 8.742187-20.867187 13.171875-36.527344 13.171875zm0 0" fill="#fff"/></svg>